<svg xmlns="http://www.w3.org/2000/svg" width="1140" height="360" viewBox="0 0 1140 360">
<defs><marker id="arrow" markerWidth="10" markerHeight="10" refX="8" refY="3" orient="auto" markerUnits="strokeWidth"><path d="M0,0 L0,6 L9,3 z" fill="#555"/></marker></defs>
<rect width="100%" height="100%" fill="white"/>
<text x="570" y="36" text-anchor="middle" font-family="Arial, sans-serif" font-size="22" font-weight="700">MiniGPT-Dense-125M-v1 architecture</text>
<g font-family="Arial, sans-serif" font-size="15"><rect x="30" y="80" width="150" height="70" rx="12" fill="#F4F4F2" stroke="#555" stroke-width="2"/>
<text x="105.0" y="110" text-anchor="middle" font-weight="700">Token IDs</text>
<text x="105.0" y="132" text-anchor="middle" font-size="13" fill="#444">$B × T</text>
<rect x="220" y="80" width="180" height="70" rx="12" fill="#E8F1FA" stroke="#0072B2" stroke-width="2"/>
<text x="310.0" y="110" text-anchor="middle" font-weight="700">Embeddings</text>
<text x="310.0" y="132" text-anchor="middle" font-size="13" fill="#444">token + position</text>
<rect x="455" y="65" width="220" height="100" rx="12" fill="#FFF1E8" stroke="#D55E00" stroke-width="2"/>
<text x="565.0" y="95" text-anchor="middle" font-weight="700">12× Transformer Blocks</text>
<text x="565.0" y="117" text-anchor="middle" font-size="13" fill="#444">d=768, h=12, MLP=3072</text>
<rect x="730" y="80" width="155" height="70" rx="12" fill="#E8F1FA" stroke="#0072B2" stroke-width="2"/>
<text x="807.5" y="110" text-anchor="middle" font-weight="700">Final Norm</text>
<text x="807.5" y="132" text-anchor="middle" font-size="13" fill="#444">LayerNorm</text>
<rect x="930" y="80" width="175" height="70" rx="12" fill="#E8F1FA" stroke="#0072B2" stroke-width="2"/>
<text x="1017.5" y="110" text-anchor="middle" font-weight="700">Tied LM Head</text>
<text x="1017.5" y="132" text-anchor="middle" font-size="13" fill="#444">logits over 50,257</text>
<rect x="420" y="230" width="170" height="65" rx="12" fill="#FFF1E8" stroke="#D55E00" stroke-width="2"/>
<text x="505.0" y="260" text-anchor="middle" font-weight="700">Attention</text>
<text x="505.0" y="282" text-anchor="middle" font-size="13" fill="#444">Q/K/V/O matrices</text>
<rect x="625" y="230" width="170" height="65" rx="12" fill="#FFF1E8" stroke="#D55E00" stroke-width="2"/>
<text x="710.0" y="260" text-anchor="middle" font-weight="700">MLP</text>
<text x="710.0" y="282" text-anchor="middle" font-size="13" fill="#444">up/down matrices</text>
<rect x="220" y="230" width="170" height="65" rx="12" fill="#E8F1FA" stroke="#0072B2" stroke-width="2"/>
<text x="305.0" y="260" text-anchor="middle" font-weight="700">AdamW fallback</text>
<text x="305.0" y="282" text-anchor="middle" font-size="13" fill="#444">embeddings/norms</text>
<line x1="180" y1="115" x2="220" y2="115" stroke="#555" stroke-width="2.5" marker-end="url(#arrow)"/>
<line x1="400" y1="115" x2="455" y2="115" stroke="#555" stroke-width="2.5" marker-end="url(#arrow)"/>
<line x1="675" y1="115" x2="730" y2="115" stroke="#555" stroke-width="2.5" marker-end="url(#arrow)"/>
<line x1="885" y1="115" x2="930" y2="115" stroke="#555" stroke-width="2.5" marker-end="url(#arrow)"/>
<line x1="565" y1="165" x2="505" y2="230" stroke="#D55E00" stroke-width="2.5" marker-end="url(#arrow)"/>
<line x1="590" y1="165" x2="710" y2="230" stroke="#D55E00" stroke-width="2.5" marker-end="url(#arrow)"/>
<line x1="310" y1="150" x2="305" y2="230" stroke="#0072B2" stroke-width="2.5" marker-end="url(#arrow)"/></g>
<text x="570" y="335" text-anchor="middle" font-family="Arial, sans-serif" font-size="14" fill="#333">Muon: matrix-aware updates for attention/MLP matrices. AdamW: embeddings, norms, vectors, fallback parameters.</text>
</svg>